<svg width="50" height="60" viewBox="0 0 50 60" fill="none" xmlns="http://www.w3.org/2000/svg">
<g clip-path="url(#clip0_36_651)">
<path d="M49.7621 25.4895C49.7621 11.1171 38.5883 -0.0345674 24.8317 -4.21214e-05C11.5089 0.0344832 0.429784 10.7768 0.0259119 24.6855C-0.293197 35.7385 7.13604 44.4537 15.0888 50.4069C17.163 51.9605 19.347 53.3366 20.6135 55.6497L22.0544 58.2835C22.3211 58.8018 22.7274 59.237 23.2286 59.541C23.7297 59.8449 24.3061 60.0058 24.894 60.0058C25.4818 60.0058 26.0583 59.8449 26.5594 59.541C27.0606 59.237 27.467 58.8018 27.7336 58.2835L29.0848 55.8175C30.3961 53.4204 32.6997 52.0394 34.8038 50.3625C43.4597 43.4673 49.7621 36.1578 49.7621 25.4895Z" fill="#FF5740"/>
<circle cx="24.5454" cy="25.9091" r="12.2727" fill="#FFE7E3"/>
</g>
<defs>
<clipPath id="clip0_36_651">
<rect width="49.7561" height="60" fill="white"/>
</clipPath>
</defs>
</svg>
