<svg width="33" height="24" viewBox="0 0 33 24" fill="none" xmlns="http://www.w3.org/2000/svg">
<path d="M6.13005 23.5468C9.51558 23.5468 12.2601 20.7683 12.2601 17.3407C12.2601 13.9131 9.51558 11.1345 6.13005 11.1345C2.74452 11.1345 0 13.9131 0 17.3407C0 20.7683 2.74452 23.5468 6.13005 23.5468Z" fill="#F2EADF"/>
<path d="M26.4829 10.7742C25.4581 10.7739 24.4476 11.0178 23.5333 11.4863L22.3601 9.73004L22.3406 9.70189C22.2256 9.54619 22.0983 9.40028 21.9597 9.26563V3.33811C21.959 2.4535 21.6118 1.6053 20.9942 0.979523C20.3766 0.353749 19.5391 0.00149017 18.6654 0H15.9048C15.6836 0 15.4714 0.0889645 15.315 0.247316C15.1586 0.405667 15.0707 0.620434 15.0707 0.844377C15.0707 1.06832 15.1586 1.28309 15.315 1.44145C15.4714 1.5998 15.6836 1.68875 15.9048 1.68875H18.657C19.0886 1.6895 19.5023 1.8636 19.8072 2.17283C20.1121 2.48206 20.2834 2.90116 20.2834 3.33811V8.29178C19.9656 8.20187 19.6374 8.15549 19.3076 8.15386H11.1036C11.1036 8.11446 11.1036 8.07224 11.1036 8.03002V6.08796H12.2156C12.4368 6.08796 12.6489 5.99899 12.8053 5.84064C12.9618 5.68229 13.0496 5.46752 13.0496 5.24358C13.0496 5.01964 12.9618 4.80487 12.8053 4.64652C12.6489 4.48817 12.4368 4.3992 12.2156 4.3992H8.30961C8.08841 4.3992 7.87627 4.48817 7.71986 4.64652C7.56345 4.80487 7.47559 5.01964 7.47559 5.24358C7.47559 5.46752 7.56345 5.68229 7.71986 5.84064C7.87627 5.99899 8.08841 6.08796 8.30961 6.08796H9.42163V8.03284C9.42056 8.49364 9.53284 8.94746 9.74834 9.35334C9.96384 9.75922 10.2758 10.1044 10.656 10.3577C11.8015 11.1178 12.7421 12.1547 13.3929 13.3747C14.0437 14.5948 14.3844 15.9597 14.3841 17.3463C14.3841 17.5703 14.4719 17.785 14.6283 17.9434C14.7847 18.1017 14.9969 18.1907 15.2181 18.1907C15.4393 18.1907 15.6514 18.1017 15.8078 17.9434C15.9642 17.785 16.0521 17.5703 16.0521 17.3463C16.0518 15.9283 15.7543 14.5264 15.1792 13.2334C14.6041 11.9404 13.7646 10.7856 12.716 9.84544H19.3048C19.6283 9.8463 19.9473 9.92299 20.2367 10.0695C20.526 10.216 20.778 10.4283 20.9728 10.6898L22.1377 12.432C20.9928 13.4576 20.2394 14.857 20.0086 16.3869C19.7777 17.9168 20.0841 19.4802 20.8743 20.8049C21.6645 22.1297 22.8886 23.132 24.3334 23.6374C25.7782 24.1428 27.3524 24.1192 28.7818 23.5708C30.2113 23.0224 31.4055 21.9839 32.1567 20.6361C32.9079 19.2882 33.1685 17.7164 32.8931 16.1941C32.6177 14.6718 31.8237 13.2955 30.6494 12.3047C29.4751 11.3138 27.9949 10.7713 26.4662 10.7714L26.4829 10.7742ZM26.4829 22.3141C25.5138 22.3146 24.5667 22.0219 23.7631 21.4736C22.9594 20.9253 22.336 20.1464 21.9727 19.2369C21.6094 18.3273 21.5228 17.3286 21.7241 16.3689C21.9254 15.4091 22.4053 14.5322 23.1024 13.8506L25.635 17.6475C25.7115 17.7621 25.8146 17.8559 25.9353 17.9207C26.056 17.9854 26.1906 18.0192 26.3272 18.019C26.4934 18.0184 26.6558 17.9685 26.7943 17.8755C26.8851 17.8132 26.9628 17.7335 27.0232 17.6408C27.0835 17.5481 27.1252 17.4443 27.1459 17.3353C27.1665 17.2263 27.1657 17.1142 27.1436 17.0055C27.1214 16.8968 27.0783 16.7936 27.0167 16.7018L24.4757 12.9049C25.1039 12.6141 25.7866 12.4634 26.4774 12.463C27.7392 12.5062 28.9351 13.0441 29.8127 13.9631C30.6902 14.8821 31.1808 16.1103 31.1808 17.3885C31.1808 18.6668 30.6902 19.895 29.8127 20.814C28.9351 21.733 27.7392 22.2709 26.4774 22.3141H26.4829Z" fill="#F2EADF"/>
</svg>
